<mxfile host="app.diagrams.net" modified="2023-10-07T17:16:39.196Z" agent="Mozilla/5.0 (Macintosh; Intel Mac OS X 10_15_7) AppleWebKit/605.1.15 (KHTML, like Gecko) Version/16.6 Safari/605.1.15" version="22.0.4" etag="PKQ0cuC82OpSStzLCvtd" type="github">
  <diagram name="Page-1" id="S8KtNdGS7Jt20MfsiHGg">
    <mxGraphModel>
      <root>
        <mxCell id="0" />
        <mxCell id="1" parent="0" />
      </root>
    </mxGraphModel>
  </diagram>
</mxfile>
